# xmcd
#
# Track frame offsets: 
#        182
#        11450
#        25437
#        35062
#        51282
#        59917
#        70062
#        81385
#        94480
#        116215
#        130632
#        141075
#        157985
#        171842
#        181802
#        193085
#        202667
#        214785
#        222785
#        233567
#        249120
#        257980
#
# Disc length: 3570 seconds
#
# Revision: 0
# Processed by: cddbd v1.5.2PL0 Copyright (c) Steve Scherf et al.
# Submitted via: ExactAudioCopy v0.99pb5
#
DISCID=3f0df016
DTITLE=Bob Wills and his Texas Playboys - King of Western Swing Vol.1 
DTITLE=Milk Cow Blues
DYEAR=1997
DGENRE=Country
TTITLE0=Texas Playboy Rag
TTITLE1=Along The Navajo Trail
TTITLE2=Miss Molly
TTITLE3=Don't Cry Baby
TTITLE4=Smith's Reel
TTITLE5=My Gal Sal
TTITLE6=Sentimental Journey
TTITLE7=Milk Cow Blues
TTITLE8=Sitting On Top Of The World
TTITLE9=San Antonio Rose
TTITLE10=Stay A Little Longer
TTITLE11=Swing Blues
TTITLE12=Twinkle Twinkle Little Star
TTITLE13=Lazy River
TTITLE14=If It's Wrong To Love You
TTITLE15=Little Liza Jane
TTITLE16=G. I. Wish
TTITLE17=Sally Goodin
TTITLE18=I'm Putting All My Eggs In One Basket
TTITLE19=Trouble In Mind
TTITLE20=Sioux City Sue
TTITLE21=Get Along Home Cindy
EXTD=
EXTT0=
EXTT1=
EXTT2=
EXTT3=
EXTT4=
EXTT5=
EXTT6=
EXTT7=
EXTT8=
EXTT9=
EXTT10=
EXTT11=
EXTT12=
EXTT13=
EXTT14=
EXTT15=
EXTT16=
EXTT17=
EXTT18=
EXTT19=
EXTT20=
EXTT21=
PLAYORDER=
